<svg width="180" height="180" viewBox="0 0 180 180" fill="none" xmlns="http://www.w3.org/2000/svg">
<circle cx="89.5" cy="89.5" r="78.3125" fill="#1ED860"/>
<path d="M125.799 121.628C124.454 123.763 121.584 124.361 119.341 123.08C101.672 112.833 79.5171 110.527 53.3263 116.163C50.8149 116.675 48.3034 115.224 47.7653 112.833C47.2271 110.442 48.7519 108.051 51.2633 107.538C79.8759 101.305 104.452 103.952 124.185 115.48C126.427 116.761 127.145 119.493 125.799 121.628ZM134.948 102.159C133.244 104.806 129.656 105.574 126.876 104.037C106.695 92.1678 75.9293 88.7521 52.0706 95.6689C48.9313 96.5228 45.7023 94.9004 44.8053 91.997C43.9084 89.0083 45.6126 85.9342 48.7519 85.0803C76.019 77.2242 109.924 80.9814 133.154 94.5588C135.756 96.0959 136.652 99.5116 134.948 102.159ZM135.756 81.8354C111.538 68.1726 71.624 66.8917 48.4828 73.5523C44.8053 74.6624 40.8588 72.6984 39.6928 69.1119C38.5267 65.6108 40.6794 61.8536 44.3569 60.7435C70.9064 53.0582 115.036 54.5952 142.841 70.3074C146.16 72.186 147.236 76.2849 145.263 79.4444C143.38 82.6893 139.074 83.7994 135.756 81.8354Z" fill="#111111"/>
</svg>
